0
SECTION
2
HEADER
9
$INSUNITS
70
4
0
ENDSEC
0
SECTION
2
TABLES
0
TABLE
2
LTYPE
0
LTYPE
72
65
70
64
2
CONTINUOUS
3
______
73
0
40
0
0
ENDTAB
0
TABLE
2
LAYER
0
ENDTAB
0
ENDSEC
0
SECTION
2
ENTITIES
0
LINE
8
front_outsideCutPath
10
0
20
32
11
0
21
23.75
0
LINE
8
front_outsideCutPath
10
0
20
23.75
11
5
21
23.75
0
LINE
8
front_outsideCutPath
10
5
20
23.75
11
5
21
11.25
0
LINE
8
front_outsideCutPath
10
5
20
11.25
11
0
21
11.25
0
LINE
8
front_outsideCutPath
10
0
20
11.25
11
0
21
3
0
LINE
8
front_outsideCutPath
10
0
20
3
11
15.25
21
3
0
LINE
8
front_outsideCutPath
10
15.25
20
3
11
15.25
21
8
0
LINE
8
front_outsideCutPath
10
15.25
20
8
11
27.75
21
8
0
LINE
8
front_outsideCutPath
10
27.75
20
8
11
27.75
21
3
0
LINE
8
front_outsideCutPath
10
27.75
20
3
11
40.25
21
3
0
LINE
8
front_outsideCutPath
10
40.25
20
3
11
40.25
21
8
0
LINE
8
front_outsideCutPath
10
40.25
20
8
11
52.75
21
8
0
LINE
8
front_outsideCutPath
10
52.75
20
8
11
52.75
21
3
0
LINE
8
front_outsideCutPath
10
52.75
20
3
11
65.25
21
3
0
LINE
8
front_outsideCutPath
10
65.25
20
3
11
65.25
21
8
0
LINE
8
front_outsideCutPath
10
65.25
20
8
11
77.75
21
8
0
LINE
8
front_outsideCutPath
10
77.75
20
8
11
77.75
21
3
0
LINE
8
front_outsideCutPath
10
77.75
20
3
11
90.25
21
3
0
LINE
8
front_outsideCutPath
10
90.25
20
3
11
90.25
21
8
0
LINE
8
front_outsideCutPath
10
90.25
20
8
11
102.75
21
8
0
LINE
8
front_outsideCutPath
10
102.75
20
8
11
102.75
21
3
0
LINE
8
front_outsideCutPath
10
102.75
20
3
11
115.25
21
3
0
LINE
8
front_outsideCutPath
10
115.25
20
3
11
115.25
21
8
0
LINE
8
front_outsideCutPath
10
115.25
20
8
11
127.75
21
8
0
LINE
8
front_outsideCutPath
10
127.75
20
8
11
127.75
21
3
0
LINE
8
front_outsideCutPath
10
127.75
20
3
11
140.25
21
3
0
LINE
8
front_outsideCutPath
10
140.25
20
3
11
140.25
21
8
0
LINE
8
front_outsideCutPath
10
140.25
20
8
11
152.75
21
8
0
LINE
8
front_outsideCutPath
10
152.75
20
8
11
152.75
21
3
0
LINE
8
front_outsideCutPath
10
152.75
20
3
11
165.25
21
3
0
LINE
8
front_outsideCutPath
10
165.25
20
3
11
165.25
21
8
0
LINE
8
front_outsideCutPath
10
165.25
20
8
11
177.75
21
8
0
LINE
8
front_outsideCutPath
10
177.75
20
8
11
177.75
21
3
0
LINE
8
front_outsideCutPath
10
177.75
20
3
11
193
21
3
0
LINE
8
front_outsideCutPath
10
193
20
3
11
193
21
11.25
0
LINE
8
front_outsideCutPath
10
193
20
11.25
11
188
21
11.25
0
LINE
8
front_outsideCutPath
10
188
20
11.25
11
188
21
23.75
0
LINE
8
front_outsideCutPath
10
188
20
23.75
11
193
21
23.75
0
LINE
8
front_outsideCutPath
10
193
20
23.75
11
193
21
32
0
LINE
8
front_outsideCutPath
10
193
20
32
11
0
21
32
0
LINE
8
left_outsideCutPath
10
201
20
32
11
201
21
23.75
0
LINE
8
left_outsideCutPath
10
201
20
23.75
11
196
21
23.75
0
LINE
8
left_outsideCutPath
10
196
20
23.75
11
196
21
11.25
0
LINE
8
left_outsideCutPath
10
196
20
11.25
11
201
21
11.25
0
LINE
8
left_outsideCutPath
10
201
20
11.25
11
201
21
3
0
LINE
8
left_outsideCutPath
10
201
20
3
11
209.75
21
3
0
LINE
8
left_outsideCutPath
10
209.75
20
3
11
209.75
21
8
0
LINE
8
left_outsideCutPath
10
209.75
20
8
11
222.25
21
8
0
LINE
8
left_outsideCutPath
10
222.25
20
8
11
222.25
21
3
0
LINE
8
left_outsideCutPath
10
222.25
20
3
11
234.75
21
3
0
LINE
8
left_outsideCutPath
10
234.75
20
3
11
234.75
21
8
0
LINE
8
left_outsideCutPath
10
234.75
20
8
11
247.25
21
8
0
LINE
8
left_outsideCutPath
10
247.25
20
8
11
247.25
21
3
0
LINE
8
left_outsideCutPath
10
247.25
20
3
11
259.75
21
3
0
LINE
8
left_outsideCutPath
10
259.75
20
3
11
259.75
21
8
0
LINE
8
left_outsideCutPath
10
259.75
20
8
11
272.25
21
8
0
LINE
8
left_outsideCutPath
10
272.25
20
8
11
272.25
21
3
0
LINE
8
left_outsideCutPath
10
272.25
20
3
11
284.75
21
3
0
LINE
8
left_outsideCutPath
10
284.75
20
3
11
284.75
21
8
0
LINE
8
left_outsideCutPath
10
284.75
20
8
11
297.25
21
8
0
LINE
8
left_outsideCutPath
10
297.25
20
8
11
297.25
21
3
0
LINE
8
left_outsideCutPath
10
297.25
20
3
11
306
21
3
0
LINE
8
left_outsideCutPath
10
306
20
3
11
306
21
11.25
0
LINE
8
left_outsideCutPath
10
306
20
11.25
11
311
21
11.25
0
LINE
8
left_outsideCutPath
10
311
20
11.25
11
311
21
23.75
0
LINE
8
left_outsideCutPath
10
311
20
23.75
11
306
21
23.75
0
LINE
8
left_outsideCutPath
10
306
20
23.75
11
306
21
32
0
LINE
8
left_outsideCutPath
10
306
20
32
11
201
21
32
0
LINE
8
back_outsideCutPath
10
0
20
64
11
0
21
55.75
0
LINE
8
back_outsideCutPath
10
0
20
55.75
11
5
21
55.75
0
LINE
8
back_outsideCutPath
10
5
20
55.75
11
5
21
43.25
0
LINE
8
back_outsideCutPath
10
5
20
43.25
11
0
21
43.25
0
LINE
8
back_outsideCutPath
10
0
20
43.25
11
0
21
35
0
LINE
8
back_outsideCutPath
10
0
20
35
11
15.25
21
35
0
LINE
8
back_outsideCutPath
10
15.25
20
35
11
15.25
21
40
0
LINE
8
back_outsideCutPath
10
15.25
20
40
11
27.75
21
40
0
LINE
8
back_outsideCutPath
10
27.75
20
40
11
27.75
21
35
0
LINE
8
back_outsideCutPath
10
27.75
20
35
11
40.25
21
35
0
LINE
8
back_outsideCutPath
10
40.25
20
35
11
40.25
21
40
0
LINE
8
back_outsideCutPath
10
40.25
20
40
11
52.75
21
40
0
LINE
8
back_outsideCutPath
10
52.75
20
40
11
52.75
21
35
0
LINE
8
back_outsideCutPath
10
52.75
20
35
11
65.25
21
35
0
LINE
8
back_outsideCutPath
10
65.25
20
35
11
65.25
21
40
0
LINE
8
back_outsideCutPath
10
65.25
20
40
11
77.75
21
40
0
LINE
8
back_outsideCutPath
10
77.75
20
40
11
77.75
21
35
0
LINE
8
back_outsideCutPath
10
77.75
20
35
11
90.25
21
35
0
LINE
8
back_outsideCutPath
10
90.25
20
35
11
90.25
21
40
0
LINE
8
back_outsideCutPath
10
90.25
20
40
11
102.75
21
40
0
LINE
8
back_outsideCutPath
10
102.75
20
40
11
102.75
21
35
0
LINE
8
back_outsideCutPath
10
102.75
20
35
11
115.25
21
35
0
LINE
8
back_outsideCutPath
10
115.25
20
35
11
115.25
21
40
0
LINE
8
back_outsideCutPath
10
115.25
20
40
11
127.75
21
40
0
LINE
8
back_outsideCutPath
10
127.75
20
40
11
127.75
21
35
0
LINE
8
back_outsideCutPath
10
127.75
20
35
11
140.25
21
35
0
LINE
8
back_outsideCutPath
10
140.25
20
35
11
140.25
21
40
0
LINE
8
back_outsideCutPath
10
140.25
20
40
11
152.75
21
40
0
LINE
8
back_outsideCutPath
10
152.75
20
40
11
152.75
21
35
0
LINE
8
back_outsideCutPath
10
152.75
20
35
11
165.25
21
35
0
LINE
8
back_outsideCutPath
10
165.25
20
35
11
165.25
21
40
0
LINE
8
back_outsideCutPath
10
165.25
20
40
11
177.75
21
40
0
LINE
8
back_outsideCutPath
10
177.75
20
40
11
177.75
21
35
0
LINE
8
back_outsideCutPath
10
177.75
20
35
11
193
21
35
0
LINE
8
back_outsideCutPath
10
193
20
35
11
193
21
43.25
0
LINE
8
back_outsideCutPath
10
193
20
43.25
11
188
21
43.25
0
LINE
8
back_outsideCutPath
10
188
20
43.25
11
188
21
55.75
0
LINE
8
back_outsideCutPath
10
188
20
55.75
11
193
21
55.75
0
LINE
8
back_outsideCutPath
10
193
20
55.75
11
193
21
64
0
LINE
8
back_outsideCutPath
10
193
20
64
11
0
21
64
0
LINE
8
right_outsideCutPath
10
201
20
64
11
201
21
55.75
0
LINE
8
right_outsideCutPath
10
201
20
55.75
11
196
21
55.75
0
LINE
8
right_outsideCutPath
10
196
20
55.75
11
196
21
43.25
0
LINE
8
right_outsideCutPath
10
196
20
43.25
11
201
21
43.25
0
LINE
8
right_outsideCutPath
10
201
20
43.25
11
201
21
35
0
LINE
8
right_outsideCutPath
10
201
20
35
11
209.75
21
35
0
LINE
8
right_outsideCutPath
10
209.75
20
35
11
209.75
21
40
0
LINE
8
right_outsideCutPath
10
209.75
20
40
11
222.25
21
40
0
LINE
8
right_outsideCutPath
10
222.25
20
40
11
222.25
21
35
0
LINE
8
right_outsideCutPath
10
222.25
20
35
11
234.75
21
35
0
LINE
8
right_outsideCutPath
10
234.75
20
35
11
234.75
21
40
0
LINE
8
right_outsideCutPath
10
234.75
20
40
11
247.25
21
40
0
LINE
8
right_outsideCutPath
10
247.25
20
40
11
247.25
21
35
0
LINE
8
right_outsideCutPath
10
247.25
20
35
11
259.75
21
35
0
LINE
8
right_outsideCutPath
10
259.75
20
35
11
259.75
21
40
0
LINE
8
right_outsideCutPath
10
259.75
20
40
11
272.25
21
40
0
LINE
8
right_outsideCutPath
10
272.25
20
40
11
272.25
21
35
0
LINE
8
right_outsideCutPath
10
272.25
20
35
11
284.75
21
35
0
LINE
8
right_outsideCutPath
10
284.75
20
35
11
284.75
21
40
0
LINE
8
right_outsideCutPath
10
284.75
20
40
11
297.25
21
40
0
LINE
8
right_outsideCutPath
10
297.25
20
40
11
297.25
21
35
0
LINE
8
right_outsideCutPath
10
297.25
20
35
11
306
21
35
0
LINE
8
right_outsideCutPath
10
306
20
35
11
306
21
43.25
0
LINE
8
right_outsideCutPath
10
306
20
43.25
11
311
21
43.25
0
LINE
8
right_outsideCutPath
10
311
20
43.25
11
311
21
55.75
0
LINE
8
right_outsideCutPath
10
311
20
55.75
11
306
21
55.75
0
LINE
8
right_outsideCutPath
10
306
20
55.75
11
306
21
64
0
LINE
8
right_outsideCutPath
10
306
20
64
11
201
21
64
0
LINE
8
bottom_outsideCutPath
10
319
20
113
11
319
21
104.25
0
LINE
8
bottom_outsideCutPath
10
319
20
104.25
11
314
21
104.25
0
LINE
8
bottom_outsideCutPath
10
314
20
104.25
11
314
21
91.75
0
LINE
8
bottom_outsideCutPath
10
314
20
91.75
11
319
21
91.75
0
LINE
8
bottom_outsideCutPath
10
319
20
91.75
11
319
21
79.25
0
LINE
8
bottom_outsideCutPath
10
319
20
79.25
11
314
21
79.25
0
LINE
8
bottom_outsideCutPath
10
314
20
79.25
11
314
21
66.75
0
LINE
8
bottom_outsideCutPath
10
314
20
66.75
11
319
21
66.75
0
LINE
8
bottom_outsideCutPath
10
319
20
66.75
11
319
21
54.25
0
LINE
8
bottom_outsideCutPath
10
319
20
54.25
11
314
21
54.25
0
LINE
8
bottom_outsideCutPath
10
314
20
54.25
11
314
21
41.75
0
LINE
8
bottom_outsideCutPath
10
314
20
41.75
11
319
21
41.75
0
LINE
8
bottom_outsideCutPath
10
319
20
41.75
11
319
21
29.25
0
LINE
8
bottom_outsideCutPath
10
319
20
29.25
11
314
21
29.25
0
LINE
8
bottom_outsideCutPath
10
314
20
29.25
11
314
21
16.75
0
LINE
8
bottom_outsideCutPath
10
314
20
16.75
11
319
21
16.75
0
LINE
8
bottom_outsideCutPath
10
319
20
16.75
11
319
21
8
0
LINE
8
bottom_outsideCutPath
10
319
20
8
11
329.25
21
8
0
LINE
8
bottom_outsideCutPath
10
329.25
20
8
11
329.25
21
3
0
LINE
8
bottom_outsideCutPath
10
329.25
20
3
11
341.75
21
3
0
LINE
8
bottom_outsideCutPath
10
341.75
20
3
11
341.75
21
8
0
LINE
8
bottom_outsideCutPath
10
341.75
20
8
11
354.25
21
8
0
LINE
8
bottom_outsideCutPath
10
354.25
20
8
11
354.25
21
3
0
LINE
8
bottom_outsideCutPath
10
354.25
20
3
11
366.75
21
3
0
LINE
8
bottom_outsideCutPath
10
366.75
20
3
11
366.75
21
8
0
LINE
8
bottom_outsideCutPath
10
366.75
20
8
11
379.25
21
8
0
LINE
8
bottom_outsideCutPath
10
379.25
20
8
11
379.25
21
3
0
LINE
8
bottom_outsideCutPath
10
379.25
20
3
11
391.75
21
3
0
LINE
8
bottom_outsideCutPath
10
391.75
20
3
11
391.75
21
8
0
LINE
8
bottom_outsideCutPath
10
391.75
20
8
11
404.25
21
8
0
LINE
8
bottom_outsideCutPath
10
404.25
20
8
11
404.25
21
3
0
LINE
8
bottom_outsideCutPath
10
404.25
20
3
11
416.75
21
3
0
LINE
8
bottom_outsideCutPath
10
416.75
20
3
11
416.75
21
8
0
LINE
8
bottom_outsideCutPath
10
416.75
20
8
11
429.25
21
8
0
LINE
8
bottom_outsideCutPath
10
429.25
20
8
11
429.25
21
3
0
LINE
8
bottom_outsideCutPath
10
429.25
20
3
11
441.75
21
3
0
LINE
8
bottom_outsideCutPath
10
441.75
20
3
11
441.75
21
8
0
LINE
8
bottom_outsideCutPath
10
441.75
20
8
11
454.25
21
8
0
LINE
8
bottom_outsideCutPath
10
454.25
20
8
11
454.25
21
3
0
LINE
8
bottom_outsideCutPath
10
454.25
20
3
11
466.75
21
3
0
LINE
8
bottom_outsideCutPath
10
466.75
20
3
11
466.75
21
8
0
LINE
8
bottom_outsideCutPath
10
466.75
20
8
11
479.25
21
8
0
LINE
8
bottom_outsideCutPath
10
479.25
20
8
11
479.25
21
3
0
LINE
8
bottom_outsideCutPath
10
479.25
20
3
11
491.75
21
3
0
LINE
8
bottom_outsideCutPath
10
491.75
20
3
11
491.75
21
8
0
LINE
8
bottom_outsideCutPath
10
491.75
20
8
11
502
21
8
0
LINE
8
bottom_outsideCutPath
10
502
20
8
11
502
21
16.75
0
LINE
8
bottom_outsideCutPath
10
502
20
16.75
11
507
21
16.75
0
LINE
8
bottom_outsideCutPath
10
507
20
16.75
11
507
21
29.25
0
LINE
8
bottom_outsideCutPath
10
507
20
29.25
11
502
21
29.25
0
LINE
8
bottom_outsideCutPath
10
502
20
29.25
11
502
21
41.75
0
LINE
8
bottom_outsideCutPath
10
502
20
41.75
11
507
21
41.75
0
LINE
8
bottom_outsideCutPath
10
507
20
41.75
11
507
21
54.25
0
LINE
8
bottom_outsideCutPath
10
507
20
54.25
11
502
21
54.25
0
LINE
8
bottom_outsideCutPath
10
502
20
54.25
11
502
21
66.75
0
LINE
8
bottom_outsideCutPath
10
502
20
66.75
11
507
21
66.75
0
LINE
8
bottom_outsideCutPath
10
507
20
66.75
11
507
21
79.25
0
LINE
8
bottom_outsideCutPath
10
507
20
79.25
11
502
21
79.25
0
LINE
8
bottom_outsideCutPath
10
502
20
79.25
11
502
21
91.75
0
LINE
8
bottom_outsideCutPath
10
502
20
91.75
11
507
21
91.75
0
LINE
8
bottom_outsideCutPath
10
507
20
91.75
11
507
21
104.25
0
LINE
8
bottom_outsideCutPath
10
507
20
104.25
11
502
21
104.25
0
LINE
8
bottom_outsideCutPath
10
502
20
104.25
11
502
21
113
0
LINE
8
bottom_outsideCutPath
10
502
20
113
11
491.75
21
113
0
LINE
8
bottom_outsideCutPath
10
491.75
20
113
11
491.75
21
118
0
LINE
8
bottom_outsideCutPath
10
491.75
20
118
11
479.25
21
118
0
LINE
8
bottom_outsideCutPath
10
479.25
20
118
11
479.25
21
113
0
LINE
8
bottom_outsideCutPath
10
479.25
20
113
11
466.75
21
113
0
LINE
8
bottom_outsideCutPath
10
466.75
20
113
11
466.75
21
118
0
LINE
8
bottom_outsideCutPath
10
466.75
20
118
11
454.25
21
118
0
LINE
8
bottom_outsideCutPath
10
454.25
20
118
11
454.25
21
113
0
LINE
8
bottom_outsideCutPath
10
454.25
20
113
11
441.75
21
113
0
LINE
8
bottom_outsideCutPath
10
441.75
20
113
11
441.75
21
118
0
LINE
8
bottom_outsideCutPath
10
441.75
20
118
11
429.25
21
118
0
LINE
8
bottom_outsideCutPath
10
429.25
20
118
11
429.25
21
113
0
LINE
8
bottom_outsideCutPath
10
429.25
20
113
11
416.75
21
113
0
LINE
8
bottom_outsideCutPath
10
416.75
20
113
11
416.75
21
118
0
LINE
8
bottom_outsideCutPath
10
416.75
20
118
11
404.25
21
118
0
LINE
8
bottom_outsideCutPath
10
404.25
20
118
11
404.25
21
113
0
LINE
8
bottom_outsideCutPath
10
404.25
20
113
11
391.75
21
113
0
LINE
8
bottom_outsideCutPath
10
391.75
20
113
11
391.75
21
118
0
LINE
8
bottom_outsideCutPath
10
391.75
20
118
11
379.25
21
118
0
LINE
8
bottom_outsideCutPath
10
379.25
20
118
11
379.25
21
113
0
LINE
8
bottom_outsideCutPath
10
379.25
20
113
11
366.75
21
113
0
LINE
8
bottom_outsideCutPath
10
366.75
20
113
11
366.75
21
118
0
LINE
8
bottom_outsideCutPath
10
366.75
20
118
11
354.25
21
118
0
LINE
8
bottom_outsideCutPath
10
354.25
20
118
11
354.25
21
113
0
LINE
8
bottom_outsideCutPath
10
354.25
20
113
11
341.75
21
113
0
LINE
8
bottom_outsideCutPath
10
341.75
20
113
11
341.75
21
118
0
LINE
8
bottom_outsideCutPath
10
341.75
20
118
11
329.25
21
118
0
LINE
8
bottom_outsideCutPath
10
329.25
20
118
11
329.25
21
113
0
LINE
8
bottom_outsideCutPath
10
329.25
20
113
11
319
21
113
0
ENDSEC
0
EOF